<?xml version="1.0"?>
<svg xmlns="http://www.w3.org/2000/svg" height="512px" viewBox="-3 0 400 400.97451" width="512px"><g><path d="m327.308594 273.113281h-20.546875c-3.773438 0-6.828125-3.054687-6.828125-6.824219 0-3.769531 3.054687-6.828124 6.828125-6.828124h20.546875c29.617187 0 53.710937-24.097657 53.710937-53.714844 0-24.984375-16.984375-46.460938-41.3125-52.210938-3.273437-.773437-5.492187-3.820312-5.230469-7.179687.25-3.234375.425782-6.496094.425782-9.796875 0-67.769532-55.132813-122.90625-122.90625-122.90625-58.226563 0-108.882813 41.355468-120.441406 98.332031-.648438 3.171875-3.433594 5.457031-6.664063 5.46875-39.015625.140625-70.75 31.988281-70.75 70.996094 0 39.15625 31.855469 71.011719 71.007813 71.011719h17.390624c3.773438 0 6.828126 3.054687 6.828126 6.824218 0 3.769532-3.054688 6.828125-6.828126 6.828125h-17.394531c-46.679687 0-84.65625-37.980469-84.65625-84.664062 0-44.664063 34.898438-81.457031 78.859375-84.453125 14.828125-60.578125 69.757813-103.996094 132.648438-103.996094 75.296875 0 136.558594 61.261719 136.558594 136.558594 0 1.761718-.046876 3.515625-.117188 5.257812 27.496094 9.015625 46.238281 34.535156 46.238281 63.929688-.003906 37.148437-30.222656 67.367187-67.367187 67.367187zm0 0" data-original="#000000" class="active-path" data-old_color="#ffffff" fill="#ffffff"/><path d="m50.144531 195.304688c-3.773437 0-6.824219-3.058594-6.824219-6.828126 0-28.601562 23.273438-51.875 51.878907-51.875 3.773437 0 6.824219 3.058594 6.824219 6.828126 0 3.769531-3.050782 6.824218-6.824219 6.824218-21.082031 0-38.226563 17.148438-38.226563 38.222656 0 3.769532-3.054687 6.828126-6.828125 6.828126zm0 0" data-original="#000000" class="active-path" data-old_color="#ffffff" fill="#ffffff"/><path d="m165.351562 400.972656c-2 0-4.003906-.292968-5.964843-.886718-5.234375-1.585938-9.539063-5.117188-12.121094-9.941407-2.582031-4.820312-3.125-10.363281-1.539063-15.597656 2.332032-7.699219 21.945313-35.449219 27.898438-43.769531 1.707031-2.378906 4.742188-3.394532 7.535156-2.558594 2.800782.84375 4.746094 3.382812 4.839844 6.308594.339844 10.226562 1.257812 44.199218-1.074219 51.894531-1.585937 5.238281-5.117187 9.542969-9.9375 12.121094-3.023437 1.609375-6.316406 2.429687-9.636719 2.429687zm7.429688-45.085937c-7.242188 10.6875-13.179688 20.0625-13.988281 22.621093-.527344 1.742188-.34375 3.589844.515625 5.195313.859375 1.609375 2.292968 2.785156 4.039062 3.3125 1.742188.527344 3.585938.351563 5.199219-.511719 1.605469-.859375 2.789063-2.292968 3.3125-4.035156.746094-2.585938 1.007813-13.679688.921875-26.582031zm5.613281 28.558593h.066407zm0 0" data-original="#000000" class="active-path" data-old_color="#ffffff" fill="#ffffff"/><path d="m192.660156 319.054688c-2 0-4.007812-.292969-5.96875-.890626-5.230468-1.585937-9.539062-5.117187-12.117187-9.9375-2.582031-4.824218-3.128907-10.363281-1.542969-15.601562 2.335938-7.695312 21.949219-35.449219 27.902344-43.765625 1.707031-2.378906 4.753906-3.398437 7.53125-2.5625 2.800781.847656 4.75 3.382813 4.84375 6.308594.339844 10.226562 1.257812 44.199219-1.074219 51.898437-1.589844 5.234375-5.121094 9.539063-9.941406 12.121094-3.019531 1.609375-6.3125 2.429688-9.632813 2.429688zm7.425782-45.085938c-7.238282 10.6875-13.179688 20.058594-13.984376 22.621094-.527343 1.742187-.347656 3.589844.511719 5.195312.863281 1.605469 2.296875 2.78125 4.039063 3.3125 1.734375.527344 3.589844.34375 5.203125-.515625 1.605469-.859375 2.785156-2.292969 3.3125-4.035156.746093-2.582031 1.007812-13.675781.917969-26.578125zm5.613281 28.554688h.066406zm0 0" data-original="#000000" class="active-path" data-old_color="#ffffff" fill="#ffffff"/><path d="m226.792969 373.667969c-2 0-4.007813-.292969-5.964844-.890625-5.234375-1.585938-9.542969-5.117188-12.121094-9.9375-2.582031-4.824219-3.128906-10.363282-1.539062-15.601563 2.332031-7.695312 21.945312-35.449219 27.898437-43.765625 1.707032-2.382812 4.738282-3.40625 7.535156-2.5625 2.800782.847656 4.746094 3.382813 4.839844 6.308594.339844 10.226562 1.257813 44.199219-1.074218 51.898438-1.585938 5.234374-5.121094 9.539062-9.941407 12.121093-3.019531 1.609375-6.3125 2.429688-9.632812 2.429688zm7.425781-45.085938c-7.238281 10.6875-13.179688 20.058594-13.984375 22.621094-.527344 1.742187-.347656 3.589844.511719 5.195313.863281 1.605468 2.296875 2.785156 4.042968 3.3125 1.738282.523437 3.585938.347656 5.199219-.515626 1.605469-.859374 2.785157-2.292968 3.3125-4.035156.746094-2.582031 1.007813-13.675781.917969-26.578125zm5.613281 28.554688h.066407zm0 0" data-original="#000000" class="active-path" data-old_color="#ffffff" fill="#ffffff"/><path d="m254.101562 298.574219c-2.003906 0-4.007812-.292969-5.96875-.890625-5.230468-1.585938-9.539062-5.113282-12.121093-9.9375-2.578125-4.824219-3.125-10.363282-1.539063-15.601563 2.332032-7.695312 21.945313-35.445312 27.902344-43.765625 1.707031-2.378906 4.75-3.398437 7.53125-2.5625 2.800781.847656 4.746094 3.382813 4.839844 6.3125.339844 10.222656 1.261718 44.199219-1.074219 51.894532-1.585937 5.234374-5.117187 9.539062-9.9375 12.121093-3.019531 1.609375-6.316406 2.429688-9.632813 2.429688zm7.425782-45.085938c-7.238282 10.6875-13.179688 20.058594-13.988282 22.621094-.527343 1.742187-.34375 3.589844.515626 5.195313.859374 1.605468 2.292968 2.785156 4.039062 3.3125 1.742188.527343 3.589844.347656 5.199219-.511719 1.609375-.863281 2.789062-2.296875 3.3125-4.039063.746093-2.582031 1.007812-13.675781.921875-26.578125zm5.613281 28.554688h.066406zm0 0" data-original="#000000" class="active-path" data-old_color="#ffffff" fill="#ffffff"/><path d="m165.351562 257.613281c-2 0-4.003906-.292969-5.964843-.886719-5.234375-1.589843-9.539063-5.117187-12.121094-9.941406-2.582031-4.824218-3.125-10.363281-1.539063-15.601562 2.332032-7.695313 21.945313-35.445313 27.898438-43.765625 1.707031-2.378907 4.742188-3.398438 7.535156-2.558594 2.800782.84375 4.746094 3.378906 4.839844 6.308594.339844 10.226562 1.257812 44.199219-1.074219 51.894531-1.585937 5.238281-5.117187 9.542969-9.9375 12.121094-3.023437 1.609375-6.316406 2.429687-9.636719 2.429687zm7.429688-45.085937c-7.242188 10.6875-13.179688 20.0625-13.988281 22.621094-.527344 1.742187-.34375 3.589843.515625 5.195312s2.292968 2.785156 4.039062 3.3125c1.742188.523438 3.585938.347656 5.199219-.511719 1.605469-.859375 2.789063-2.292969 3.3125-4.039062.746094-2.582031 1.007813-13.675781.921875-26.578125zm5.613281 28.554687h.066407zm0 0" data-original="#000000" class="active-path" data-old_color="#ffffff" fill="#ffffff"/><path d="m131.21875 332.707031c-2 0-4.007812-.292969-5.964844-.886719-5.234375-1.589843-9.542968-5.117187-12.121094-9.941406-2.582031-4.824218-3.128906-10.363281-1.539062-15.601562 2.332031-7.695313 21.945312-35.445313 27.898438-43.765625 1.707031-2.382813 4.746093-3.390625 7.535156-2.5625 2.800781.847656 4.746094 3.382812 4.839844 6.3125.339843 10.226562 1.257812 44.199219-1.074219 51.894531-1.585938 5.238281-5.121094 9.539062-9.9375 12.121094-3.023438 1.609375-6.316407 2.429687-9.636719 2.429687zm7.429688-45.085937c-7.242188 10.6875-13.183594 20.058594-13.988282 22.621094-.527344 1.742187-.34375 3.589843.515625 5.195312s2.292969 2.785156 4.039063 3.3125c1.742187.519531 3.585937.34375 5.199218-.511719 1.605469-.863281 2.789063-2.296875 3.3125-4.039062.746094-2.582031 1.007813-13.675781.921876-26.578125zm5.613281 28.554687h.066406zm0 0" data-original="#000000" class="active-path" data-old_color="#ffffff" fill="#ffffff"/></g> </svg>
