<?xml version="1.0"?>
<svg xmlns="http://www.w3.org/2000/svg" height="512px" viewBox="0 -21 434.03264 434" width="512px"><g><path d="m277.214844 309.753906h-17.359375c-3.769531 0-6.828125-3.058594-6.828125-6.828125s3.058594-6.828125 6.828125-6.828125h17.359375c24.445312 0 44.332031-19.882812 44.332031-44.324218 0-20.621094-14.023437-38.34375-34.101563-43.089844-3.273437-.777344-5.496093-3.824219-5.230468-7.179688.210937-2.707031.355468-5.4375.355468-8.195312 0-56.679688-46.113281-102.792969-102.792968-102.792969-48.699219 0-91.0625 34.585937-100.730469 82.238281-.644531 3.171875-3.429687 5.457032-6.664063 5.46875-32.382812.121094-58.730468 26.558594-58.730468 58.933594 0 32.5 26.445312 58.941406 58.945312 58.941406h14.699219c3.769531 0 6.824219 3.058594 6.824219 6.828125s-3.054688 6.828125-6.824219 6.828125h-14.699219c-40.03125 0-72.597656-32.566406-72.597656-72.597656 0-38.035156 29.519531-69.421875 66.855469-72.359375 12.90625-51.265625 59.558593-87.933594 112.925781-87.933594 64.207031 0 116.445312 52.238281 116.445312 116.445313 0 1.238281-.023437 2.46875-.070312 3.695312 23.257812 7.976563 39.046875 29.738282 39.046875 54.769532-.003906 31.96875-26.011719 57.980468-57.988281 57.980468zm0 0" data-original="#000000" class="active-path" data-old_color="#ffffff" fill="#ffffff"/><path d="m305.109375 192.976562c-5.875 0-11.902344-.796874-17.910156-2.367187-3.648438-.953125-5.828125-4.679687-4.875-8.332031.949219-3.644532 4.660156-5.855469 8.328125-4.875 37.542968 9.78125 71.671875-19.03125 71.671875-55.289063 0-31.546875-25.667969-57.214843-57.214844-57.214843-25.308594 0-47.890625 16.996093-54.917969 41.320312-1.046875 3.625-4.824218 5.691406-8.453125 4.667969-3.625-1.046875-5.710937-4.832031-4.667969-8.453125 8.707032-30.140625 36.6875-51.1875 68.039063-51.1875 39.078125 0 70.867187 31.792968 70.867187 70.867187 0 39.070313-31.789062 70.863281-70.867187 70.863281zm0 0" data-original="#000000" class="active-path" data-old_color="#ffffff" fill="#ffffff"/><path d="m43.023438 244.003906c-3.769532 0-6.828126-3.054687-6.828126-6.824218 0-24.753907 20.136719-44.894532 44.890626-44.894532 3.769531 0 6.828124 3.054688 6.828124 6.824219 0 3.773437-3.058593 6.828125-6.828124 6.828125-17.222657 0-31.234376 14.011719-31.234376 31.242188 0 3.769531-3.058593 6.824218-6.828124 6.824218zm0 0" data-original="#000000" class="active-path" data-old_color="#ffffff" fill="#ffffff"/><path d="m171.6875 330.1875c-16.054688 0-29.117188-13.0625-29.117188-29.125 0-13.289062 19.199219-51.355469 23.046876-58.851562 2.339843-4.554688 9.804687-4.558594 12.144531 0 3.851562 7.492187 23.050781 45.5625 23.050781 58.851562 0 16.058594-13.0625 29.125-29.125 29.125zm0-69.457031c-7.675781 16.097656-15.464844 34.550781-15.464844 40.332031 0 8.53125 6.9375 15.46875 15.464844 15.46875 8.53125 0 15.46875-6.9375 15.46875-15.46875.003906-5.785156-7.789062-24.238281-15.46875-40.332031zm0 0" data-original="#000000" class="active-path" data-old_color="#ffffff" fill="#ffffff"/><path d="m227.425781 391.496094c-16.054687 0-29.117187-13.0625-29.117187-29.121094 0-13.289062 19.195312-51.359375 23.046875-58.855469 2.339843-4.554687 9.804687-4.558593 12.144531 0 3.851562 7.496094 23.050781 45.566407 23.050781 58.855469 0 16.058594-13.0625 29.121094-29.125 29.121094zm0-69.453125c-7.675781 16.097656-15.464843 34.550781-15.464843 40.332031 0 8.53125 6.9375 15.464844 15.464843 15.464844 8.53125 0 15.46875-6.933594 15.46875-15.464844 0-5.78125-7.789062-24.238281-15.46875-40.332031zm0 0" data-original="#000000" class="active-path" data-old_color="#ffffff" fill="#ffffff"/><path d="m115.953125 391.496094c-16.058594 0-29.121094-13.0625-29.121094-29.121094 0-13.289062 19.199219-51.359375 23.046875-58.855469 2.339844-4.554687 9.808594-4.558593 12.148438 0 3.847656 7.496094 23.050781 45.566407 23.050781 58.855469 0 16.058594-13.066406 29.121094-29.125 29.121094zm0-69.453125c-7.675781 16.097656-15.464844 34.550781-15.464844 40.332031 0 8.53125 6.933594 15.464844 15.464844 15.464844s15.46875-6.933594 15.46875-15.464844c0-5.78125-7.789063-24.238281-15.46875-40.332031zm0 0" data-original="#000000" class="active-path" data-old_color="#ffffff" fill="#ffffff"/><path d="m255.296875 201.988281c-3.769531 0-6.828125-3.054687-6.828125-6.828125 0-39.257812-31.941406-71.203125-71.207031-71.203125-3.769531 0-6.824219-3.054687-6.824219-6.824219 0-3.773437 3.054688-6.828124 6.824219-6.828124 46.792969 0 84.863281 38.066406 84.863281 84.855468 0 3.773438-3.058594 6.828125-6.828125 6.828125zm0 0" data-original="#000000" class="active-path" data-old_color="#ffffff" fill="#ffffff"/><path d="m298.707031 45.6875c-3.769531 0-6.828125-3.054688-6.828125-6.824219v-32.019531c0-3.769531 3.058594-6.828125 6.828125-6.828125s6.824219 3.058594 6.824219 6.828125v32.019531c0 3.769531-3.054688 6.824219-6.824219 6.824219zm0 0" data-original="#000000" class="active-path" data-old_color="#ffffff" fill="#ffffff"/><path d="m427.207031 132.082031h-34.132812c-3.773438 0-6.828125-3.058593-6.828125-6.828125 0-3.769531 3.054687-6.824218 6.828125-6.824218h34.132812c3.769531 0 6.824219 3.054687 6.824219 6.824218 0 3.769532-3.054688 6.828125-6.824219 6.828125zm0 0" data-original="#000000" class="active-path" data-old_color="#ffffff" fill="#ffffff"/><path d="m298.707031 45.6875c-3.769531 0-6.828125-3.054688-6.828125-6.824219v-32.019531c0-3.769531 3.058594-6.828125 6.828125-6.828125s6.824219 3.058594 6.824219 6.828125v32.019531c0 3.769531-3.054688 6.824219-6.824219 6.824219zm0 0" data-original="#000000" class="active-path" data-old_color="#ffffff" fill="#ffffff"/><path d="m366.089844 56.910156c-1.621094 0-3.257813-.574218-4.558594-1.746094-2.804688-2.523437-3.035156-6.839843-.515625-9.640624l22.429687-24.953126c2.527344-2.800781 6.839844-3.035156 9.640626-.515624 2.804687 2.523437 3.03125 6.839843.515624 9.640624l-22.433593 24.953126c-1.34375 1.5-3.207031 2.261718-5.078125 2.261718zm0 0" data-original="#000000" class="active-path" data-old_color="#ffffff" fill="#ffffff"/><path d="m378.578125 219.640625c-1.851563 0-3.695313-.75-5.046875-2.226563l-21.585938-23.644531c-2.539062-2.789062-2.339843-7.105469.441407-9.648437 2.792969-2.53125 7.105469-2.335938 9.648437.441406l21.585938 23.648438c2.539062 2.785156 2.339844 7.101562-.441406 9.644531-1.308594 1.191406-2.957032 1.785156-4.601563 1.785156zm0 0" data-original="#000000" class="active-path" data-old_color="#ffffff" fill="#ffffff"/><path d="m240.425781 68.289062c-1.851562 0-3.695312-.75-5.046875-2.226562l-21.585937-23.644531c-2.539063-2.785157-2.34375-7.101563.441406-9.644531 2.785156-2.539063 7.101563-2.335938 9.644531.4375l21.585938 23.648437c2.542968 2.785156 2.34375 7.101563-.4375 9.644531-1.308594 1.195313-2.957032 1.785156-4.601563 1.785156zm0 0" data-original="#000000" class="active-path" data-old_color="#ffffff" fill="#ffffff"/></g> </svg>
