<?xml version="1.0"?>
<svg xmlns="http://www.w3.org/2000/svg" height="512px" viewBox="0 -20 390.0249 390" width="512px" class=""><g><path d="m277.21875 268.800781h-17.367188c-3.773437 0-6.828124-3.058593-6.828124-6.828125 0-3.769531 3.054687-6.824218 6.828124-6.824218h17.367188c24.441406 0 44.328125-19.867188 44.328125-44.289063 0-20.601563-14.019531-38.304687-34.101563-43.050781-3.273437-.773438-5.492187-3.820313-5.230468-7.179688.210937-2.703125.359375-5.425781.359375-8.1875 0-56.628906-46.113281-102.703125-102.796875-102.703125-48.699219 0-91.0625 34.558594-100.730469 82.171875-.644531 3.167969-3.429687 5.453125-6.667969 5.464844-32.378906.117188-58.726562 26.53125-58.726562 58.878906 0 32.472656 26.445312 58.890625 58.945312 58.890625h14.699219c3.769531 0 6.824219 3.058594 6.824219 6.828125 0 3.769532-3.054688 6.824219-6.824219 6.824219h-14.699219c-40.03125 0-72.597656-32.539063-72.597656-72.542969 0-38.011718 29.519531-69.367187 66.859375-72.308594 12.910156-51.21875 59.558594-87.859374 112.921875-87.859374 64.207031 0 116.449219 52.195312 116.449219 116.355468 0 1.234375-.027344 2.464844-.074219 3.6875 23.261719 7.972656 39.046875 29.71875 39.046875 54.730469-.003906 31.949219-26.011719 57.941406-57.984375 57.941406zm0 0" data-original="#000000" class="active-path" data-old_color="#ffffff" fill="#ffffff"/><path d="m326.144531 162.128906c-14.164062 0-28.1875-3.777344-40.53125-10.929687-3.265625-1.882813-4.378906-6.0625-2.488281-9.324219 1.886719-3.269531 6.066406-4.378906 9.328125-2.488281 20.332031 11.773437 46.304687 11.703125 66.1875.746093-38.410156-.269531-69.570313-31.59375-69.570313-70.0625 0-22.402343 10.648438-42.8125 27.6875-55.75-29.285156 4.160157-53.15625 27.476563-57.304687 57.457032-.507813 3.734375-3.945313 6.328125-7.695313 5.832031-3.734374-.519531-6.347656-3.964844-5.824218-7.699219 6.332031-45.910156 51.039062-79.015625 98.953125-67.648437 3.050781.730469 5.21875 3.441406 5.25 6.578125.035156 3.136718-2.078125 5.894531-5.117188 6.675781-24.902343 6.433594-42.292969 28.863281-42.292969 54.554687 0 31.105469 25.304688 56.410157 56.414063 56.410157 7.390625 0 14.609375-1.429688 21.457031-4.253907 2.90625-1.183593 6.246094-.253906 8.101563 2.273438 1.859375 2.53125 1.753906 6.003906-.253907 8.414062-15.472656 18.566407-38.179687 29.214844-62.300781 29.214844zm0 0" data-original="#000000" class="active-path" data-old_color="#ffffff" fill="#ffffff"/><path d="m43.023438 203.230469c-3.773438 0-6.828126-3.058594-6.828126-6.828125 0-24.753906 20.136719-44.894532 44.890626-44.894532 3.769531 0 6.824218 3.058594 6.824218 6.828126 0 3.769531-3.054687 6.828124-6.824218 6.828124-17.222657 0-31.238282 14.011719-31.238282 31.238282 0 3.769531-3.054687 6.828125-6.824218 6.828125zm0 0" data-original="#000000" class="active-path" data-old_color="#ffffff" fill="#ffffff"/><path d="m171.6875 289.410156c-16.054688 0-29.121094-13.0625-29.121094-29.121094 0-13.289062 19.203125-51.355468 23.046875-58.851562 2.339844-4.554688 9.808594-4.5625 12.148438 0 3.851562 7.492188 23.050781 45.5625 23.050781 58.851562 0 16.058594-13.0625 29.121094-29.125 29.121094zm0-69.453125c-7.675781 16.097657-15.464844 34.550781-15.464844 40.332031 0 8.527344 6.933594 15.46875 15.464844 15.46875s15.46875-6.941406 15.46875-15.46875c0-5.785156-7.789062-24.238281-15.46875-40.332031zm0 0" data-original="#000000" class="active-path" data-old_color="#ffffff" fill="#ffffff"/><path d="m227.425781 350.71875c-16.058593 0-29.121093-13.0625-29.121093-29.117188 0-13.289062 19.203124-51.359374 23.046874-58.855468 2.335938-4.554688 9.816407-4.554688 12.148438 0 3.847656 7.496094 23.046875 45.566406 23.046875 58.855468 0 16.054688-13.0625 29.117188-29.121094 29.117188zm0-69.449219c-7.679687 16.097657-15.464843 34.550781-15.464843 40.332031 0 8.53125 6.9375 15.464844 15.464843 15.464844 8.527344 0 15.464844-6.933594 15.464844-15.464844.003906-5.78125-7.785156-24.234374-15.464844-40.332031zm0 0" data-original="#000000" class="active-path" data-old_color="#ffffff" fill="#ffffff"/><path d="m115.953125 350.71875c-16.058594 0-29.121094-13.0625-29.121094-29.117188 0-13.289062 19.199219-51.359374 23.046875-58.855468 2.339844-4.554688 9.808594-4.5625 12.148438 0 3.847656 7.496094 23.050781 45.566406 23.050781 58.855468-.003906 16.054688-13.066406 29.117188-29.125 29.117188zm0-69.449219c-7.675781 16.09375-15.464844 34.550781-15.464844 40.332031 0 8.53125 6.933594 15.464844 15.464844 15.464844s15.46875-6.933594 15.46875-15.464844c0-5.785156-7.789063-24.238281-15.46875-40.332031zm0 0" data-original="#000000" class="active-path" data-old_color="#ffffff" fill="#ffffff"/><path d="m255.296875 161.214844c-3.773437 0-6.824219-3.058594-6.824219-6.828125 0-39.257813-31.949218-71.203125-71.210937-71.203125-3.769531 0-6.828125-3.058594-6.828125-6.828125s3.058594-6.824219 6.828125-6.824219c46.796875 0 84.863281 38.066406 84.863281 84.855469 0 3.769531-3.054688 6.828125-6.828125 6.828125zm0 0" data-original="#000000" class="active-path" data-old_color="#ffffff" fill="#ffffff"/></g> </svg>
